<?xml version="1.0" encoding="iso-8859-1"?><!-- Generator: Adobe Illustrator 22.1.0, SVG Export Plug-In . SVG Version: 6.00 Build 0)  --><svg fill="#FD7E14" xmlns="http://www.w3.org/2000/svg" xmlns:xlink="http://www.w3.org/1999/xlink" viewBox="0 0 50 50" width="50px" height="50px"><path d="M46.678,7.503c-0.32-0.217-10.096-5.267-10.096-5.267L36.58,2.24c-0.712-0.335-1.563-0.295-2.257,0.069c0.905,0.448,1.542,1.333,1.647,2.383C35.988,4.818,36,4.933,36,4.989v40c0,1.186-0.694,2.201-1.692,2.688c0.364,0.199,0.771,0.312,1.192,0.312c0.373,0,0.724-0.088,1.042-0.234l0.002,0.004c1.608-0.832,9.648-4.995,9.944-5.164C47.421,42.06,48,41.062,48,39.989v-30C48,8.991,47.506,8.061,46.678,7.503z"/><path d="M9.343,11.507C8.975,11.173,8.497,10.989,8,10.989c-0.156,0-0.446,0-1.744,0.601c-0.715,0.331-3.206,1.639-3.206,1.639c-0.33,0.179-0.595,0.459-0.782,0.783C2.344,14,2.42,13.989,2.499,13.989H2.5c0.668,0,1.078,0.466,1.223,0.617c0,0,28.206,30.727,28.569,31.09c0.195,0.195,0.451,0.293,0.707,0.293s0.512-0.098,0.707-0.293S34,45.245,34,44.989c0-0.216,0-13.331,0-13.331S9.533,11.661,9.343,11.507z"/><path d="M27.724,23.97L34,18.686V4.989c0-0.256-0.098-0.512-0.293-0.707c-0.391-0.391-1.024-0.391-1.414,0c0,0-5.724,6.436-12.062,13.557L27.724,23.97z"/><path d="M12.254,26.802c0,0-8.595,9.65-8.693,9.748C3.29,36.821,2.915,36.989,2.5,36.989c-0.078,0-0.153-0.011-0.228-0.023c0.202,0.351,0.497,0.641,0.864,0.819l-0.003,0.006c0.87,0.442,3.74,1.9,4.118,2.054C7.489,39.94,7.741,39.989,8,39.989c0.347,0,0.69-0.091,0.998-0.267c0.023-0.013,8.529-7.17,8.529-7.17L12.254,26.802z"/><path d="M8,22.007l-5.659-5.96c-0.036-0.036-0.086-0.058-0.141-0.058c-0.11,0-0.2,0.089-0.2,0.2v18.606c0,0.107,0.087,0.195,0.195,0.195c0.056,0,0.105-0.025,0.14-0.064L8,28.639V22.007z"/></svg>